<svg width="18" height="18" viewBox="0 0 18 18" fill="none" xmlns="http://www.w3.org/2000/svg">
<g opacity="0.4">
<path d="M13.7021 12.4587L14.1001 12.7614L14.1001 12.7614L13.7021 12.4587ZM9.54641 16.3143L9.27452 15.8947L9.27266 15.8959L9.54641 16.3143ZM8.45284 16.3143L8.18204 16.7346L8.18298 16.7352L8.45284 16.3143ZM4.29787 12.4587L4.69706 12.1576L4.69571 12.1558L4.29787 12.4587ZM8.99508 1C5.24351 1 2.125 4.00068 2.125 7.73832H3.125C3.125 4.57616 5.77231 2 8.99508 2V1ZM15.875 7.73832C15.875 4.00019 12.756 1 8.99508 1V2C12.2282 2 14.875 4.57665 14.875 7.73832H15.875ZM14.1001 12.7614C15.1964 11.3202 15.875 9.6023 15.875 7.73832H14.875C14.875 9.35123 14.2891 10.8612 13.3042 12.156L14.1001 12.7614ZM9.81829 16.7339C11.4597 15.6704 12.9173 14.3161 14.1001 12.7614L13.3042 12.1559C12.1909 13.6192 10.8185 14.8943 9.27452 15.8947L9.81829 16.7339ZM8.18298 16.7352C8.44014 16.9001 8.71747 17.0037 9.01928 16.9999C9.32019 16.9961 9.58556 16.8862 9.82015 16.7327L9.27266 15.8959C9.14273 15.9809 9.06135 15.9993 9.00663 16C8.95279 16.0007 8.8656 15.985 8.7227 15.8934L8.18298 16.7352ZM3.8987 12.7598C5.07243 14.3158 6.53091 15.6709 8.18204 16.7346L8.72363 15.894C7.17119 14.8938 5.7997 13.6194 4.69705 12.1576L3.8987 12.7598ZM2.125 7.73832C2.125 9.60218 2.80277 11.3202 3.90004 12.7615L4.69571 12.1558C3.7102 10.8613 3.125 9.35135 3.125 7.73832H2.125ZM8.99506 9.49725C8.10401 9.49725 7.39564 8.80141 7.39564 7.93256H6.39564C6.39564 9.37514 7.57342 10.4972 8.99506 10.4972V9.49725ZM10.6043 7.93256C10.6043 8.79853 9.88982 9.49725 8.99506 9.49725V10.4972C10.4145 10.4972 11.6043 9.37802 11.6043 7.93256H10.6043ZM8.99506 6.33262C9.87728 6.33262 10.6043 7.06325 10.6043 7.93256H11.6043C11.6043 6.50843 10.427 5.33262 8.99506 5.33262V6.33262ZM7.39564 7.93256C7.39564 7.06033 8.11651 6.33262 8.99506 6.33262V5.33262C7.56092 5.33262 6.39564 6.51135 6.39564 7.93256H7.39564Z" fill="#434346"/>
</g>
</svg>
