<svg width="19" height="18" viewBox="0 0 19 18" fill="none" xmlns="http://www.w3.org/2000/svg">
<path d="M14.2549 12.4587L14.6528 12.7614L14.6528 12.7614L14.2549 12.4587ZM10.0991 16.3143L9.82725 15.8947L9.8254 15.8959L10.0991 16.3143ZM9.00557 16.3143L8.73477 16.7346L8.73571 16.7352L9.00557 16.3143ZM4.85061 12.4587L5.24979 12.1576L5.24845 12.1558L4.85061 12.4587ZM9.54782 1C5.79624 1 2.67773 4.00068 2.67773 7.73832H3.67773C3.67773 4.57616 6.32505 2 9.54782 2V1ZM16.4277 7.73832C16.4277 4.00019 13.3087 1 9.54782 1V2C12.7809 2 15.4277 4.57665 15.4277 7.73832H16.4277ZM14.6528 12.7614C15.7491 11.3202 16.4277 9.6023 16.4277 7.73832H15.4277C15.4277 9.35123 14.8419 10.8612 13.8569 12.156L14.6528 12.7614ZM10.371 16.7339C12.0125 15.6704 13.47 14.3161 14.6528 12.7614L13.8569 12.1559C12.7437 13.6192 11.3713 14.8943 9.82726 15.8947L10.371 16.7339ZM8.73571 16.7352C8.99288 16.9001 9.27021 17.0037 9.57201 16.9999C9.87292 16.9961 10.1383 16.8862 10.3729 16.7327L9.8254 15.8959C9.69546 15.9809 9.61408 15.9993 9.55936 16C9.50553 16.0007 9.41833 15.985 9.27543 15.8934L8.73571 16.7352ZM4.45143 12.7598C5.62516 14.3158 7.08365 15.6709 8.73477 16.7346L9.27637 15.894C7.72393 14.8938 6.35244 13.6194 5.24979 12.1576L4.45143 12.7598ZM2.67773 7.73832C2.67773 9.60218 3.35551 11.3202 4.45277 12.7615L5.24845 12.1558C4.26294 10.8613 3.67773 9.35135 3.67773 7.73832H2.67773ZM9.54779 9.49725C8.65675 9.49725 7.94838 8.80141 7.94838 7.93256H6.94838C6.94838 9.37514 8.12615 10.4972 9.54779 10.4972V9.49725ZM11.157 7.93256C11.157 8.79853 10.4425 9.49725 9.54779 9.49725V10.4972C10.9672 10.4972 12.157 9.37802 12.157 7.93256H11.157ZM9.54779 6.33262C10.43 6.33262 11.157 7.06325 11.157 7.93256H12.157C12.157 6.50843 10.9798 5.33262 9.54779 5.33262V6.33262ZM7.94838 7.93256C7.94838 7.06033 8.66924 6.33262 9.54779 6.33262V5.33262C8.11366 5.33262 6.94838 6.51135 6.94838 7.93256H7.94838Z" fill="white"/>
</svg>
