<svg width="15" height="16" viewBox="0 0 15 16" fill="none" xmlns="http://www.w3.org/2000/svg">
<g clip-path="url(#clip0)">
<path d="M14.9536 6.20975C12.9724 2.24745 8.64524 2.15144 6.63441 2.65414L0.333473 4.22204C0.082079 4.28458 -0.0604489 4.54978 0.0247456 4.7935L0.654036 6.59365C0.884483 7.27914 1.62662 7.65542 2.32051 7.42415C2.32462 7.42278 2.32869 7.42137 2.33276 7.41988L7.04075 5.69442C9.45974 4.80785 12.2402 5.21534 14.2968 6.75786C14.4598 6.88015 14.6856 6.87426 14.8421 6.74368C14.9986 6.61308 15.0448 6.39204 14.9536 6.20975Z" fill="#A48A6B"/>
<path d="M13.3887 8.69143C12.6955 9.10618 11.5222 10.4027 9.53412 10.9698C9.52958 10.9708 9.52504 10.9714 9.5205 10.9725C9.50482 10.9765 9.48965 10.9813 9.47482 10.9868C8.90632 11.1435 8.27199 11.2403 7.56416 11.2403C5.13746 11.2403 3.7917 10.1119 2.42319 9.52884C2.20611 9.42033 1.94214 9.5083 1.8336 9.72536C1.72506 9.94245 1.81306 10.2064 2.03012 10.315C2.24372 10.4051 2.46254 10.5132 2.69055 10.6311L1.97709 11.7013C1.84248 11.9032 1.89706 12.176 2.099 12.3107C2.30032 12.4449 2.57334 12.3913 2.7084 12.1888L3.474 11.0404C3.89154 11.2541 4.34634 11.4702 4.85668 11.6523L4.52891 12.9634C4.47006 13.1988 4.6132 13.4374 4.84866 13.4963C5.08347 13.5549 5.32253 13.4127 5.38156 13.1765L5.69981 11.9035C6.11664 12.0031 6.56819 12.0747 7.06093 12.1042V13.4375C7.06093 13.6802 7.25733 13.8769 7.50003 13.8769C7.74272 13.8769 7.93948 13.6802 7.93948 13.4375V12.11C8.39973 12.0884 8.85731 12.0272 9.30646 11.9283L9.62649 13.2084C9.68573 13.4453 9.92538 13.5867 10.1594 13.5281C10.3949 13.4693 10.538 13.2307 10.4791 12.9952L10.1539 11.6941C10.637 11.5323 11.1051 11.3256 11.5505 11.077L12.2949 12.1936C12.4301 12.3964 12.7033 12.4495 12.9043 12.3155C13.1062 12.1808 13.1608 11.908 13.0262 11.7061L12.2939 10.6076C12.4662 10.4851 12.4175 10.5171 13.916 9.3946C14.1102 9.24897 14.1495 8.97352 14.0039 8.77938C13.8583 8.58517 13.5829 8.5458 13.3887 8.69143Z" fill="#A48A6B"/>
</g>
<defs>
<clipPath id="clip0">
<rect width="15" height="15" fill="white" transform="translate(0 0.658691)"/>
</clipPath>
</defs>
</svg>
