<svg width="15" height="16" viewBox="0 0 15 16" fill="none" xmlns="http://www.w3.org/2000/svg">
<path fill-rule="evenodd" clip-rule="evenodd" d="M7.81483 5.13379H6.94248V6.4714C6.94248 6.71229 7.13776 6.90758 7.37866 6.90758C7.61955 6.90758 7.81483 6.71229 7.81483 6.4714V5.13379ZM8.68648 5.33235C9.72143 5.71613 10.459 6.71233 10.459 7.8808C10.459 8.78909 9.72267 9.5254 8.81438 9.5254H5.93895C5.03066 9.5254 4.29435 8.78909 4.29435 7.8808C4.29435 6.71137 5.03312 5.71448 6.06942 5.33139V6.46858C6.06942 7.19126 6.65527 7.77711 7.37795 7.77711C8.10063 7.77711 8.68648 7.19126 8.68648 6.46858V5.33235ZM5.34059 10.3928H9.41157L9.05769 13.2709C8.97104 13.9756 8.46674 14.5374 7.81133 14.7203V15.2163C7.81133 15.4572 7.61605 15.6525 7.37516 15.6525C7.13427 15.6525 6.93898 15.4572 6.93898 15.2163V14.7348C6.24528 14.5658 5.70972 13.976 5.63361 13.2372L5.34059 10.3928Z" fill="#A48A6B"/>
<path d="M5.42344 3.20377C5.43564 3.19123 5.44851 3.18005 5.46105 3.16852L5.49799 3.13362C5.50409 3.12718 5.51087 3.12244 5.51866 3.11634C6.5817 2.15056 8.20862 2.18885 9.22319 3.20343L9.34214 3.32271L9.50683 3.4874C9.70744 3.68801 9.70642 4.01502 9.50547 4.21597C9.30418 4.4176 8.97717 4.41794 8.7769 4.21733L8.49293 3.93336C7.84772 3.28848 6.79824 3.28848 6.15337 3.93302L5.94835 4.13159C5.74977 4.33017 5.42581 4.32983 5.22622 4.1299C5.12964 4.03366 5.07644 3.90523 5.0761 3.76866C5.07576 3.63278 5.12828 3.50434 5.22486 3.40844L5.42344 3.20377Z" fill="#A48A6B"/>
<path d="M4.02579 2.18665L4.19658 2.01586C4.19726 2.01518 4.1976 2.01417 4.19896 2.01383L4.33383 1.87828C4.35755 1.8549 4.3833 1.83456 4.41041 1.81694C6.14306 0.295752 8.77846 0.342516 10.4559 1.95622C10.464 1.96367 10.4732 1.96876 10.4813 1.97689L10.7897 2.2856C10.9727 2.46825 10.9716 2.76544 10.7876 2.94945C10.604 3.13312 10.3068 3.13447 10.1238 2.95114L9.81541 2.64311C9.81337 2.6404 9.81168 2.63803 9.80964 2.63633C8.45314 1.32592 6.30131 1.31779 4.93397 2.60956L4.69134 2.85253C4.50868 3.03518 4.21082 3.03451 4.02715 2.85084C3.84382 2.66683 3.84314 2.3693 4.02579 2.18665Z" fill="#A48A6B"/>
</svg>
