<svg width="15" height="16" viewBox="0 0 15 16" fill="none" xmlns="http://www.w3.org/2000/svg">
<g clip-path="url(#clip0)">
<path d="M7.5 0.658691C6.83719 0.659436 6.20173 0.923067 5.73305 1.39175C5.26438 1.86043 5.00074 2.49588 5 3.15869V7.53369C5.00056 8.0308 5.19828 8.50739 5.54979 8.8589C5.9013 9.21041 6.37789 9.40813 6.875 9.40869H8.125C8.62211 9.40813 9.0987 9.21041 9.45021 8.8589C9.80171 8.50739 9.99944 8.0308 10 7.53369V3.15869C9.99925 2.49588 9.73562 1.86043 9.26694 1.39175C8.79826 0.923067 8.16281 0.659436 7.5 0.658691V0.658691Z" fill="#A48A6B"/>
<path d="M10.625 3.85156V7.53383C10.6243 8.19664 10.3606 8.83209 9.89195 9.30077C9.42327 9.76945 8.78781 10.0331 8.125 10.0338H6.875C6.21219 10.0331 5.57674 9.76945 5.10806 9.30077C4.63938 8.83209 4.37575 8.19664 4.375 7.53383V3.8718C3.57247 4.70557 3.12441 5.81798 3.125 6.97523V15.6588H11.875V6.90883C11.8755 5.76523 11.4265 4.66725 10.625 3.85156ZM9.375 14.4088H5.625V13.7838H9.375V14.4088ZM9.375 13.1588H5.625V12.5338H9.375V13.1588Z" fill="#A48A6B"/>
<path d="M2.8125 4.40869C2.56394 4.40842 2.32564 4.30956 2.14988 4.13381C1.97413 3.95805 1.87527 3.71975 1.875 3.47119C1.875 3.38831 1.84208 3.30883 1.78347 3.25022C1.72487 3.19162 1.64538 3.15869 1.5625 3.15869C1.47962 3.15869 1.40013 3.19162 1.34153 3.25022C1.28292 3.30883 1.25 3.38831 1.25 3.47119C1.24973 3.71975 1.15087 3.95805 0.975116 4.13381C0.799359 4.30956 0.561058 4.40842 0.3125 4.40869C0.22962 4.40869 0.150134 4.44162 0.0915291 4.50022C0.032924 4.55883 0 4.63831 0 4.72119C0 4.80407 0.032924 4.88356 0.0915291 4.94216C0.150134 5.00077 0.22962 5.03369 0.3125 5.03369C0.561058 5.03396 0.799359 5.13282 0.975116 5.30858C1.15087 5.48433 1.24973 5.72263 1.25 5.97119C1.25 6.05407 1.28292 6.13356 1.34153 6.19216C1.40013 6.25077 1.47962 6.28369 1.5625 6.28369C1.64538 6.28369 1.72487 6.25077 1.78347 6.19216C1.84208 6.13356 1.875 6.05407 1.875 5.97119C1.87527 5.72263 1.97413 5.48433 2.14988 5.30858C2.32564 5.13282 2.56394 5.03396 2.8125 5.03369C2.89538 5.03369 2.97487 5.00077 3.03347 4.94216C3.09208 4.88356 3.125 4.80407 3.125 4.72119C3.125 4.63831 3.09208 4.55883 3.03347 4.50022C2.97487 4.44162 2.89538 4.40869 2.8125 4.40869Z" fill="#A48A6B"/>
<path d="M14.2969 1.90869C14.0483 1.90842 13.81 1.80956 13.6343 1.63381C13.4585 1.45805 13.3596 1.21975 13.3594 0.971191C13.3594 0.888311 13.3264 0.808826 13.2678 0.750221C13.2092 0.691615 13.1298 0.658691 13.0469 0.658691C12.964 0.658691 12.8845 0.691615 12.8259 0.750221C12.7673 0.808826 12.7344 0.888311 12.7344 0.971191C12.7341 1.21975 12.6352 1.45805 12.4595 1.63381C12.2837 1.80956 12.0454 1.90842 11.7969 1.90869C11.714 1.90869 11.6345 1.94162 11.5759 2.00022C11.5173 2.05883 11.4844 2.13831 11.4844 2.22119C11.4844 2.30407 11.5173 2.38356 11.5759 2.44216C11.6345 2.50077 11.714 2.53369 11.7969 2.53369C12.0454 2.53396 12.2837 2.63282 12.4595 2.80858C12.6352 2.98433 12.7341 3.22263 12.7344 3.47119C12.7344 3.55407 12.7673 3.63356 12.8259 3.69216C12.8845 3.75077 12.964 3.78369 13.0469 3.78369C13.1298 3.78369 13.2092 3.75077 13.2678 3.69216C13.3264 3.63356 13.3594 3.55407 13.3594 3.47119C13.3596 3.22263 13.4585 2.98433 13.6343 2.80858C13.81 2.63282 14.0483 2.53396 14.2969 2.53369C14.3798 2.53369 14.4592 2.50077 14.5178 2.44216C14.5764 2.38356 14.6094 2.30407 14.6094 2.22119C14.6094 2.13831 14.5764 2.05883 14.5178 2.00022C14.4592 1.94162 14.3798 1.90869 14.2969 1.90869Z" fill="#A48A6B"/>
</g>
<defs>
<clipPath id="clip0">
<rect width="15" height="15" fill="white" transform="translate(0 0.658691)"/>
</clipPath>
</defs>
</svg>
