<svg width="15" height="16" viewBox="0 0 15 16" fill="none" xmlns="http://www.w3.org/2000/svg">
<g clip-path="url(#clip0)">
<path d="M14.4702 3.05245C14.0568 2.33796 13.4625 1.73872 12.7519 1.31954C12.0189 0.887207 11.1795 0.658691 10.3243 0.658691C9.46905 0.658691 8.62955 0.887207 7.89663 1.31954C7.18594 1.73875 6.59171 2.33799 6.17825 3.05245C6.09384 3.19832 6.10026 3.37955 6.19477 3.51906L8.08474 6.3088C8.0957 6.30801 8.10663 6.30713 8.11782 6.30713H9.47916L9.20128 5.47343C9.12455 5.24318 9.24897 4.99431 9.47922 4.91755C9.70949 4.84085 9.95834 4.96527 10.0351 5.19549L10.3243 6.063L10.6134 5.19549C10.6901 4.96524 10.939 4.84079 11.1693 4.91755C11.3995 4.99431 11.524 5.24315 11.4472 5.47343L11.1694 6.30713H12.5307C12.5419 6.30713 12.5528 6.30798 12.5638 6.3088L14.4537 3.51906C14.5482 3.37955 14.5546 3.19832 14.4702 3.05245Z" fill="#A48A6B"/>
<path d="M8.47266 14.7486C8.47266 15.2504 8.88094 15.6587 9.38279 15.6587H11.2656C11.7675 15.6587 12.1758 15.2504 12.1758 14.7486V7.18604H8.47266V14.7486Z" fill="#A48A6B"/>
<path d="M0.941406 6.24463H5.11524V10.5435H0.941406V6.24463Z" fill="#A48A6B"/>
<path d="M0.470703 14.7486C0.470703 15.2504 0.878984 15.6587 1.38084 15.6587H4.6758C5.17766 15.6587 5.58594 15.2504 5.58594 14.7486V11.4224H0.470703V14.7486Z" fill="#A48A6B"/>
<path d="M4.64455 1.56886C4.64455 1.13181 4.33269 0.802246 3.91916 0.802246C3.8146 0.802246 3.70884 0.82334 3.60486 0.864971L2.1254 1.45674C1.71876 1.61939 1.41211 2.07232 1.41211 2.51028V5.36576H4.64455V1.56886Z" fill="#A48A6B"/>
</g>
<defs>
<clipPath id="clip0">
<rect width="15" height="15" fill="white" transform="translate(0 0.658691)"/>
</clipPath>
</defs>
</svg>
