<svg width="15" height="16" viewBox="0 0 15 16" fill="none" xmlns="http://www.w3.org/2000/svg">
<g clip-path="url(#clip0)">
<path d="M13.7502 7.22135C13.5902 7.22135 13.4302 7.1601 13.3083 7.03822L8.62078 2.35072C8.37641 2.10635 8.37641 1.71135 8.62078 1.46697C8.86516 1.2226 9.26016 1.2226 9.50453 1.46697L14.192 6.15447C14.4364 6.39885 14.4364 6.79385 14.192 7.03822C14.0702 7.1601 13.9102 7.22135 13.7502 7.22135Z" fill="#A48A6B"/>
<path d="M0.625156 15.6588C0.465156 15.6588 0.305156 15.5976 0.183281 15.4757C-0.0610938 15.2313 -0.0610938 14.8363 0.183281 14.592L2.37078 12.4045C2.61516 12.1601 3.01016 12.1601 3.25453 12.4045C3.49891 12.6488 3.49891 13.0438 3.25453 13.2882L1.06703 15.4757C0.945156 15.5976 0.785156 15.6588 0.625156 15.6588Z" fill="#A48A6B"/>
<path d="M11.1191 3.65576L13.1503 1.6246L14.0342 2.50848L12.003 4.53965L11.1191 3.65576Z" fill="#A48A6B"/>
<path d="M14.3752 3.47135C14.2152 3.47135 14.0552 3.4101 13.9333 3.28822L12.3708 1.72572C12.1264 1.48135 12.1264 1.08635 12.3708 0.841973C12.6152 0.597598 13.0102 0.597598 13.2545 0.841973L14.817 2.40447C15.0614 2.64885 15.0614 3.04385 14.817 3.28822C14.6952 3.4101 14.5352 3.47135 14.3752 3.47135Z" fill="#A48A6B"/>
<path d="M13.144 5.32729L10.3315 2.51479C10.1484 2.33166 9.85154 2.33166 9.66842 2.51479L1.95904 10.2248C1.28904 10.8948 1.28904 11.9848 1.95904 12.6554L3.00404 13.7004C3.33904 14.0354 3.77904 14.2029 4.21904 14.2029C4.65904 14.2029 5.09904 14.0354 5.43404 13.7004L6.60842 12.526L5.49592 11.4135C5.25154 11.1692 5.25154 10.7742 5.49592 10.5298C5.74029 10.2854 6.13529 10.2854 6.37967 10.5298L7.49217 11.6423L8.48342 10.651L6.74592 8.91354C6.50154 8.66916 6.50154 8.27416 6.74592 8.02979C6.99029 7.78541 7.38529 7.78541 7.62967 8.02979L9.36717 9.76729L10.3584 8.77604L9.24592 7.66354C9.00154 7.41916 9.00154 7.02416 9.24592 6.77979C9.49029 6.53541 9.88529 6.53541 10.1297 6.77979L11.2422 7.89229L13.144 5.98979C13.3272 5.80666 13.3272 5.51041 13.144 5.32729Z" fill="#A48A6B"/>
</g>
<defs>
<clipPath id="clip0">
<rect width="15" height="15" fill="white" transform="translate(0 0.658691)"/>
</clipPath>
</defs>
</svg>
