<svg width="15" height="16" viewBox="0 0 15 16" fill="none" xmlns="http://www.w3.org/2000/svg">
<g clip-path="url(#clip0)">
<path d="M7.00481 5.77881C6.82972 5.84129 6.64123 5.87563 6.44497 5.87563H2.8331C2.63672 5.87563 2.44835 5.84129 2.27325 5.77881C1.55972 6.15921 1.08398 6.85753 1.08398 7.64694V14.6579C1.08398 15.2098 1.56944 15.6587 2.16625 15.6587H7.11182C7.70851 15.6587 8.19397 15.2098 8.19397 14.6579V7.64694C8.19397 6.85753 7.71835 6.15921 7.00481 5.77881ZM6.33854 13.4746C6.33854 13.7172 6.14181 13.9141 5.89909 13.9141H3.37898C3.13625 13.9141 2.93953 13.7172 2.93953 13.4746V7.74799C2.93953 7.50526 3.13625 7.30854 3.37898 7.30854H5.89909C6.14181 7.30854 6.33854 7.50526 6.33854 7.74799V13.4746Z" fill="#A48A6B"/>
<path d="M3.81836 8.1875H5.45956V13.0352H3.81836V8.1875Z" fill="#A48A6B"/>
<path d="M13.4587 1.12549C12.8412 1.12549 12.3071 1.28479 11.9145 1.58623C11.6341 1.80149 11.4404 2.07775 11.3472 2.38846H9.64062V3.26736H11.3472C11.4404 3.57807 11.6341 3.85433 11.9145 4.0696C12.3071 4.37103 12.8412 4.53034 13.4587 4.53034C13.7014 4.53034 13.8982 4.33361 13.8982 4.09088V1.56494C13.8982 1.32221 13.7014 1.12549 13.4587 1.12549Z" fill="#A48A6B"/>
<path d="M8.32234 1.50586H8.11475V4.14922H8.32234C8.56507 4.14922 8.7618 3.95238 8.7618 3.70976V1.94531C8.7618 1.7027 8.56507 1.50586 8.32234 1.50586Z" fill="#A48A6B"/>
<path d="M2.83301 4.99669H6.44488C6.88101 4.99669 7.23589 4.64181 7.23589 4.20567V1.44971C7.23589 1.01357 6.88101 0.658691 6.44488 0.658691H2.83301C2.39676 0.658691 2.04199 1.01357 2.04199 1.44971V4.20567C2.04199 4.64181 2.39676 4.99669 2.83301 4.99669Z" fill="#A48A6B"/>
</g>
<defs>
<clipPath id="clip0">
<rect width="15" height="15" fill="white" transform="translate(0 0.658691)"/>
</clipPath>
</defs>
</svg>
