<svg width="15" height="16" viewBox="0 0 15 16" fill="none" xmlns="http://www.w3.org/2000/svg">
<g clip-path="url(#clip0)">
<path d="M4.7168 12.6704V14.3403C4.7168 15.0673 5.30821 15.6587 6.03516 15.6587H8.96484C9.69179 15.6587 10.2832 15.0673 10.2832 14.3403V12.6704H4.7168Z" fill="#A48A6B"/>
<path d="M3.54492 0.658691V1.41481L4.66673 11.7915H10.3333L11.4551 1.41481V0.658691H3.54492ZM7.5 8.30518C6.77306 8.30518 6.18164 7.71376 6.18164 6.98682C6.18164 6.25987 6.77306 5.66846 7.5 5.66846C8.22694 5.66846 8.81836 6.25987 8.81836 6.98682C8.81836 7.71376 8.22694 8.30518 7.5 8.30518Z" fill="#A48A6B"/>
</g>
<defs>
<clipPath id="clip0">
<rect width="15" height="15" fill="white" transform="translate(0 0.658691)"/>
</clipPath>
</defs>
</svg>
