<svg width="218" height="218" viewBox="0 0 218 218" fill="none" xmlns="http://www.w3.org/2000/svg">
<circle cx="109" cy="109" r="108" stroke="white" stroke-width="2"/>
<path d="M58 109L43 117.66L43 100.34L58 109Z" fill="white"/>
<path d="M75.476 110.808H77.646C77.4967 111.825 77.0487 112.642 76.302 113.258C75.5647 113.874 74.622 114.182 73.474 114.182C71.9713 114.182 70.7953 113.711 69.946 112.768C69.106 111.816 68.686 110.561 68.686 109.002C68.686 107.443 69.1107 106.193 69.96 105.25C70.8093 104.298 71.9807 103.822 73.474 103.822C74.566 103.822 75.476 104.107 76.204 104.676C76.932 105.236 77.38 105.983 77.548 106.916H75.364C75.1307 106.095 74.5007 105.684 73.474 105.684C72.6153 105.684 71.9573 105.997 71.5 106.622C71.052 107.238 70.828 108.031 70.828 109.002C70.828 109.973 71.052 110.771 71.5 111.396C71.9573 112.012 72.6153 112.32 73.474 112.32C74.006 112.32 74.4447 112.189 74.79 111.928C75.1447 111.657 75.3733 111.284 75.476 110.808ZM79.3583 114V106.804H81.9623L83.4183 109.828H83.7823L85.2383 106.804H87.8283V114H85.9243V109.408H85.5603L84.4123 111.732H82.7743L81.6263 109.408H81.2623V114H79.3583ZM93.2173 106.622C94.3559 106.622 95.2613 106.967 95.9333 107.658C96.6053 108.349 96.9413 109.263 96.9413 110.402C96.9413 111.541 96.6053 112.455 95.9333 113.146C95.2613 113.837 94.3559 114.182 93.2173 114.182C92.0879 114.182 91.1826 113.837 90.5013 113.146C89.8293 112.446 89.4933 111.531 89.4933 110.402C89.4933 109.273 89.8293 108.363 90.5013 107.672C91.1826 106.972 92.0879 106.622 93.2173 106.622ZM93.2173 112.558C93.8053 112.558 94.2439 112.357 94.5333 111.956C94.8319 111.545 94.9813 111.027 94.9813 110.402C94.9813 109.786 94.8319 109.277 94.5333 108.876C94.2439 108.465 93.8053 108.26 93.2173 108.26C92.6386 108.26 92.1999 108.465 91.9013 108.876C91.6026 109.277 91.4533 109.786 91.4533 110.402C91.4533 111.027 91.6026 111.545 91.9013 111.956C92.1999 112.357 92.6386 112.558 93.2173 112.558ZM97.8555 108.442V106.804H104.534V108.442H102.182V114H100.222V108.442H97.8555ZM109.631 108.26C109.052 108.26 108.614 108.465 108.315 108.876C108.026 109.277 107.881 109.786 107.881 110.402C107.881 111.018 108.026 111.531 108.315 111.942C108.614 112.353 109.052 112.558 109.631 112.558C110.191 112.558 110.616 112.357 110.905 111.956C111.204 111.555 111.353 111.037 111.353 110.402C111.353 109.777 111.204 109.263 110.905 108.862C110.616 108.461 110.191 108.26 109.631 108.26ZM105.991 106.804H107.881V107.462H108.245C108.693 106.902 109.365 106.622 110.261 106.622C111.194 106.622 111.936 106.977 112.487 107.686C113.038 108.386 113.313 109.291 113.313 110.402C113.313 111.522 113.038 112.432 112.487 113.132C111.936 113.832 111.194 114.182 110.261 114.182C109.384 114.182 108.735 113.902 108.315 113.342H107.951V116.8H105.991V106.804ZM121.666 110.038V110.626H116.514C116.57 111.914 117.153 112.558 118.264 112.558C118.973 112.558 119.421 112.306 119.608 111.802H121.596C121.446 112.549 121.087 113.132 120.518 113.552C119.948 113.972 119.188 114.182 118.236 114.182C117.106 114.182 116.21 113.837 115.548 113.146C114.894 112.455 114.568 111.531 114.568 110.374C114.568 109.226 114.894 108.316 115.548 107.644C116.201 106.963 117.083 106.622 118.194 106.622C119.258 106.622 120.098 106.939 120.714 107.574C121.33 108.209 121.647 109.03 121.666 110.038ZM119.664 109.324C119.533 108.503 119.038 108.092 118.18 108.092C117.321 108.092 116.789 108.503 116.584 109.324H119.664ZM122.615 108.442V106.804H129.293V108.442H126.941V114H124.981V108.442H122.615ZM132.711 106.804V108.904H134.475C135.399 108.904 136.108 109.128 136.603 109.576C137.107 110.015 137.359 110.631 137.359 111.424C137.359 112.227 137.107 112.857 136.603 113.314C136.108 113.771 135.399 114 134.475 114H130.751V106.804H132.711ZM132.711 112.376H134.195C134.643 112.376 134.956 112.297 135.133 112.138C135.31 111.97 135.399 111.727 135.399 111.41C135.399 111.083 135.31 110.841 135.133 110.682C134.956 110.523 134.643 110.444 134.195 110.444H132.711V112.376ZM146.114 106.622C147.252 106.622 148.158 106.967 148.83 107.658C149.502 108.349 149.838 109.263 149.838 110.402C149.838 111.541 149.502 112.455 148.83 113.146C148.158 113.837 147.252 114.182 146.114 114.182C144.984 114.182 144.079 113.837 143.398 113.146C142.726 112.446 142.39 111.531 142.39 110.402C142.39 109.273 142.726 108.363 143.398 107.672C144.079 106.972 144.984 106.622 146.114 106.622ZM146.114 112.558C146.702 112.558 147.14 112.357 147.43 111.956C147.728 111.545 147.878 111.027 147.878 110.402C147.878 109.786 147.728 109.277 147.43 108.876C147.14 108.465 146.702 108.26 146.114 108.26C145.535 108.26 145.096 108.465 144.798 108.876C144.499 109.277 144.35 109.786 144.35 110.402C144.35 111.027 144.499 111.545 144.798 111.956C145.096 112.357 145.535 112.558 146.114 112.558ZM162.317 114H160.357V111.13H157.361V114H155.401V106.804H157.361V109.492H160.357V106.804H162.317V114ZM168.808 114V113.384H168.444C167.986 113.916 167.314 114.182 166.428 114.182C165.644 114.182 165.023 113.953 164.566 113.496C164.108 113.029 163.88 112.46 163.88 111.788C163.88 111.144 164.122 110.584 164.608 110.108C165.093 109.632 165.826 109.394 166.806 109.394H168.724V109.212C168.724 108.465 168.299 108.092 167.45 108.092C166.694 108.092 166.288 108.349 166.232 108.862H164.286C164.304 108.181 164.598 107.639 165.168 107.238C165.737 106.827 166.465 106.622 167.352 106.622C168.378 106.622 169.176 106.841 169.746 107.28C170.324 107.719 170.614 108.4 170.614 109.324V114H168.808ZM167.114 112.628C167.59 112.628 167.977 112.488 168.276 112.208C168.574 111.928 168.724 111.564 168.724 111.116V110.668H167.184C166.288 110.668 165.84 110.99 165.84 111.634C165.84 112.297 166.264 112.628 167.114 112.628ZM177.165 111.578H179.097C179.003 112.362 178.653 112.992 178.047 113.468C177.449 113.944 176.703 114.182 175.807 114.182C174.696 114.182 173.814 113.841 173.161 113.16C172.507 112.469 172.181 111.55 172.181 110.402C172.181 109.263 172.507 108.349 173.161 107.658C173.814 106.967 174.696 106.622 175.807 106.622C176.703 106.622 177.44 106.851 178.019 107.308C178.607 107.756 178.947 108.353 179.041 109.1H177.095C176.936 108.54 176.511 108.26 175.821 108.26C175.242 108.26 174.817 108.456 174.547 108.848C174.276 109.24 174.141 109.753 174.141 110.388C174.141 111.023 174.276 111.545 174.547 111.956C174.827 112.357 175.251 112.558 175.821 112.558C176.595 112.558 177.043 112.231 177.165 111.578Z" fill="white"/>
</svg>
